<svg xmlns="http://www.w3.org/2000/svg" width="38" height="38.001" viewBox="0 0 38 38.001"><g transform="translate(-819 -3367)"><rect width="38" height="38" transform="translate(819 3367)" fill="#a5adbb"/><path d="M3310.15-12091h-30v-1.224a5.815,5.815,0,0,1,3.067-5.115l5.815-3.144a1.7,1.7,0,0,0,.9-1.5v-2.136a13.564,13.564,0,0,1-2.287-4.675,2.544,2.544,0,0,1-.974-2v-2.583a2.559,2.559,0,0,1,.651-1.7v-3.436a5.713,5.713,0,0,1,1.365-4.212c1.338-1.512,3.511-2.278,6.46-2.278s5.126.767,6.463,2.278a5.713,5.713,0,0,1,1.362,4.212v3.436a2.56,2.56,0,0,1,.655,1.7v2.583a2.574,2.574,0,0,1-1.518,2.334,14.727,14.727,0,0,1-1.927,3.746c-.173.238-.33.444-.467.614v2.182a1.7,1.7,0,0,0,.953,1.528l6.23,3.082a5.788,5.788,0,0,1,3.252,5.21v1.1Z" transform="translate(-2457.15 15496)" fill="#737e92"/></g></svg>